<?xml version="1.0" encoding="UTF-8" standalone="no"?>
<svg
   viewBox="0 0 920 670"
   version="1.1"
   id="svg4"
   sodipodi:docname="arrows-to-eye.svg"
   width="920"
   height="670"
   inkscape:version="1.2.2 (b0a8486541, 2022-12-01)"
   xmlns:inkscape="http://www.inkscape.org/namespaces/inkscape"
   xmlns:sodipodi="http://sodipodi.sourceforge.net/DTD/sodipodi-0.dtd"
   xmlns="http://www.w3.org/2000/svg"
   xmlns:svg="http://www.w3.org/2000/svg">
  <defs
     id="defs8" />
  <sodipodi:namedview
     id="namedview6"
     pagecolor="#ffffff"
     bordercolor="#666666"
     borderopacity="1.0"
     inkscape:showpageshadow="2"
     inkscape:pageopacity="0.0"
     inkscape:pagecheckerboard="0"
     inkscape:deskcolor="#d1d1d1"
     showgrid="false"
     inkscape:zoom="1.5214844"
     inkscape:cx="460.40565"
     inkscape:cy="334.87035"
     inkscape:window-width="2560"
     inkscape:window-height="1410"
     inkscape:window-x="0"
     inkscape:window-y="30"
     inkscape:window-maximized="1"
     inkscape:current-layer="svg4" />
  <rect
     style="fill:#ffffff;stroke:#07054a;stroke-width:20;stroke-linejoin:round;stroke-miterlimit:10;stroke-dasharray:none;stroke-dashoffset:0;stroke-opacity:1"
     id="rect289"
     width="900"
     height="650"
     x="10"
     y="10" />
  <!--!Font Awesome Free 6.7.1 by @fontawesome - https://fontawesome.com License - https://fontawesome.com/license/free Copyright 2024 Fonticons, Inc.-->
  <path
     fill="#8cd9bd"
     d="m 155,94 c 9.4,-9.3 24.6,-9.3 34,0 l 63,63 v -38 c 0,-13.3 10.7,-24 24,-24 13.3,0 24,10.7 24,24 v 96 c 0,13.3 -10.7,24 -24,24 h -96 c -13.3,0 -24,-10.7 -24,-24 0,-13.3 10.7,-24 24,-24 h 38.1 L 155,128 c -9.3,-9.4 -9.3,-24.6 0,-34 z M 273.5,322.9 C 298.6,272.6 362.7,191 460,191 c 97.3,0 161.4,81.6 186.5,131.9 3.8,7.6 3.8,16.5 0,24.2 C 621.4,397.4 557.3,479 460,479 362.7,479 298.6,397.4 273.5,347.1 c -3.8,-7.6 -3.8,-16.5 0,-24.2 z M 460,399 a 64,64 0 1 0 0,-128 64,64 0 1 0 0,128 z M 731,94 c 9.4,-9.4 24.6,-9.4 33.9,0 9.3,9.4 9.4,24.6 0,33.9 l -63,63 H 740 c 13.3,0 24,10.7 24,24 0,13.3 -10.7,24 -24,24 h -96 c -13.3,0 -24,-10.7 -24,-24 v -96 c 0,-13.3 10.7,-24 24,-24 13.3,0 24,10.7 24,24 V 157 Z M 155,576 c -9.4,-9.4 -9.4,-24.6 0,-33.9 l 63,-63 -38,-0.1 c -13.3,0 -24,-10.7 -24,-24 0,-13.3 10.7,-24 24,-24 h 96 c 13.3,0 24,10.7 24,24 v 96 c 0,13.3 -10.7,24 -24,24 -13.3,0 -24,-10.7 -24,-24 V 512.9 L 189,576 c -9.4,9.4 -24.6,9.4 -33.9,0 z m 576,0 -63,-63 v 38.1 c 0,13.3 -10.7,24 -24,24 -13.3,0 -24,-10.7 -24,-24 v -96 c 0,-13.3 10.7,-24 24,-24 h 96 c 13.3,0 24,10.7 24,24 0,13.3 -10.7,24 -24,24 h -38.1 l 63,63 c 9.4,9.4 9.4,24.6 0,33.9 -9.4,9.3 -24.6,9.4 -33.9,0 z"
     id="path2" />
</svg>
