<?xml version="1.0" encoding="UTF-8" standalone="no"?>
<svg
   viewBox="0 0 920 670"
   version="1.1"
   id="svg4"
   sodipodi:docname="baby.svg"
   width="920"
   height="670"
   inkscape:version="1.2.2 (b0a8486541, 2022-12-01)"
   xmlns:inkscape="http://www.inkscape.org/namespaces/inkscape"
   xmlns:sodipodi="http://sodipodi.sourceforge.net/DTD/sodipodi-0.dtd"
   xmlns="http://www.w3.org/2000/svg"
   xmlns:svg="http://www.w3.org/2000/svg">
  <defs
     id="defs8" />
  <sodipodi:namedview
     id="namedview6"
     pagecolor="#ffffff"
     bordercolor="#666666"
     borderopacity="1.0"
     inkscape:showpageshadow="2"
     inkscape:pageopacity="0.0"
     inkscape:pagecheckerboard="0"
     inkscape:deskcolor="#d1d1d1"
     showgrid="false"
     inkscape:zoom="1.5214844"
     inkscape:cx="460.40565"
     inkscape:cy="334.87035"
     inkscape:window-width="2560"
     inkscape:window-height="1410"
     inkscape:window-x="0"
     inkscape:window-y="30"
     inkscape:window-maximized="1"
     inkscape:current-layer="svg4" />
  <rect
     style="fill:#ffffff;stroke:#07054a;stroke-width:20;stroke-linejoin:round;stroke-miterlimit:10"
     id="rect289"
     width="900"
     height="650"
     x="10"
     y="10" />
  <!--!Font Awesome Free 6.7.1 by @fontawesome - https://fontawesome.com License - https://fontawesome.com/license/free Copyright 2024 Fonticons, Inc.-->
  <path
     fill="#8cd9bd"
     d="m 388,167 a 72,72 0 1 1 144,0 72,72 0 1 1 -144,0 z m -112.3,56.5 c 13,-17.9 38,-21.8 55.9,-8.8 l 36.2,26.3 c 26.8,19.5 59.1,30 92.2,30 33.1,0 65.4,-10.5 92.2,-30 l 36.2,-26.4 c 17.9,-13 42.9,-9 55.9,8.8 13,17.8 9,42.9 -8.8,55.9 l -36.2,26.4 c -13.6,9.9 -28.1,18.2 -43.3,25 V 367 H 364 v -36.3 c -15.2,-6.7 -29.7,-15.1 -43.3,-25 l -36.2,-26.4 c -17.9,-13 -21.8,-38 -8.8,-55.9 z m 89.8,184.8 60.6,53 -26,37.2 24.3,24.3 c 15.6,15.6 15.6,40.9 0,56.6 -15.6,15.7 -40.9,15.6 -56.6,0 l -48,-48 C 306,517.6 304.1,496 315.2,480.1 l 50.2,-71.8 z m 128.5,53 60.6,-53 50.2,71.8 c 11.1,15.9 9.2,37.5 -4.5,51.2 l -48,48 c -15.6,15.6 -40.9,15.6 -56.6,0 -15.7,-15.6 -15.6,-40.9 0,-56.6 L 520,498.4 494,461.2 Z"
     id="path2" />
</svg>
