<?xml version="1.0" encoding="UTF-8" standalone="no"?>
<svg
   viewBox="0 0 920 670"
   version="1.1"
   id="svg4"
   sodipodi:docname="magnifying-glass-dollar.svg"
   width="920"
   height="670"
   inkscape:version="1.2.2 (b0a8486541, 2022-12-01)"
   xmlns:inkscape="http://www.inkscape.org/namespaces/inkscape"
   xmlns:sodipodi="http://sodipodi.sourceforge.net/DTD/sodipodi-0.dtd"
   xmlns="http://www.w3.org/2000/svg"
   xmlns:svg="http://www.w3.org/2000/svg">
  <defs
     id="defs8" />
  <sodipodi:namedview
     id="namedview6"
     pagecolor="#ffffff"
     bordercolor="#666666"
     borderopacity="1.0"
     inkscape:showpageshadow="2"
     inkscape:pageopacity="0.0"
     inkscape:pagecheckerboard="0"
     inkscape:deskcolor="#d1d1d1"
     showgrid="false"
     inkscape:zoom="1.5214844"
     inkscape:cx="459.7484"
     inkscape:cy="334.87035"
     inkscape:window-width="2560"
     inkscape:window-height="1410"
     inkscape:window-x="0"
     inkscape:window-y="30"
     inkscape:window-maximized="1"
     inkscape:current-layer="svg4" />
  <rect
     style="fill:#ffffff;stroke:#07054a;stroke-width:20;stroke-linejoin:round;stroke-miterlimit:10"
     id="rect289"
     width="900"
     height="650"
     x="10"
     y="10" />
  <!--!Font Awesome Free 6.7.1 by @fontawesome - https://fontawesome.com License - https://fontawesome.com/license/free Copyright 2024 Fonticons, Inc.-->
  <path
     fill="#8cd9bd"
     d="m 646,303 c 0,45.9 -14.9,88.3 -40,122.7 l 126.6,126.7 c 12.5,12.5 12.5,32.8 0,45.3 -12.5,12.5 -32.8,12.5 -45.3,0 L 560.7,471 C 526.3,496.2 483.9,511 438,511 323.1,511 230,417.9 230,303 230,188.1 323.1,95 438,95 552.9,95 646,188.1 646,303 Z M 458,199 c 0,-11 -9,-20 -20,-20 -11,0 -20,9 -20,20 v 14 c -7.6,1.7 -15.2,4.4 -22.2,8.5 -13.9,8.3 -25.9,22.8 -25.8,43.9 0.1,20.3 12,33.1 24.7,40.7 11,6.6 24.7,10.8 35.6,14 l 1.7,0.5 c 12.6,3.8 21.8,6.8 28,10.7 5.1,3.2 5.8,5.4 5.9,8.2 0.1,5 -1.8,8 -5.9,10.5 -5,3.1 -12.9,5 -21.4,4.7 -11.1,-0.4 -21.5,-3.9 -35.1,-8.5 -2.3,-0.8 -4.7,-1.6 -7.2,-2.4 -10.5,-3.5 -21.8,2.2 -25.3,12.6 -3.5,10.4 2.2,21.8 12.6,25.3 1.9,0.6 4,1.3 6.1,2.1 0,0 0,0 0,0 0,0 0,0 0,0 8.3,2.9 17.9,6.2 28.2,8.4 v 14.6 c 0,11 9,20 20,20 11,0 20,-9 20,-20 V 393 c 8,-1.7 16,-4.5 23.2,-9 14.3,-8.9 25.1,-24.1 24.8,-45 -0.3,-20.3 -11.7,-33.4 -24.6,-41.6 -11.5,-7.2 -25.9,-11.6 -37.1,-15 l -0.7,-0.2 c -12.8,-3.9 -21.9,-6.7 -28.3,-10.5 -5.2,-3.1 -5.3,-4.9 -5.3,-6.7 0,-3.7 1.4,-6.5 6.2,-9.3 5.4,-3.2 13.6,-5.1 21.5,-5 9.6,0.1 20.2,2.2 31.2,5.2 10.7,2.8 21.6,-3.5 24.5,-14.2 2.9,-10.7 -3.5,-21.6 -14.2,-24.5 -6.5,-1.7 -13.7,-3.4 -21.1,-4.7 v -13.9 z"
     id="path2" />
</svg>
