<?xml version="1.0" encoding="UTF-8" standalone="no"?>
<svg
   id="Ebene_1"
   data-name="Ebene 1"
   viewBox="0 0 8416.3402 2915.3098"
   version="1.1"
   sodipodi:docname="c3value-dark-landscape.svg"
   inkscape:version="1.2.2 (b0a8486541, 2022-12-01)"
   xml:space="preserve"
   width="8416.3398"
   height="2915.3098"
   inkscape:export-filename="c3value-dark-landscape.png"
   inkscape:export-xdpi="65.860001"
   inkscape:export-ydpi="65.860001"
   xmlns:inkscape="http://www.inkscape.org/namespaces/inkscape"
   xmlns:sodipodi="http://sodipodi.sourceforge.net/DTD/sodipodi-0.dtd"
   xmlns="http://www.w3.org/2000/svg"
   xmlns:svg="http://www.w3.org/2000/svg"><sodipodi:namedview
     id="namedview10301"
     pagecolor="#ffffff"
     bordercolor="#666666"
     borderopacity="1.0"
     inkscape:showpageshadow="2"
     inkscape:pageopacity="0.0"
     inkscape:pagecheckerboard="false"
     inkscape:deskcolor="#d1d1d1"
     showgrid="false"
     inkscape:zoom="20.868791"
     inkscape:cx="8394.4731"
     inkscape:cy="2254.6347"
     inkscape:window-width="2560"
     inkscape:window-height="1410"
     inkscape:window-x="0"
     inkscape:window-y="30"
     inkscape:window-maximized="1"
     inkscape:current-layer="Ebene_1" /><defs
     id="defs10292"><style
       id="style10290">
      .cls-1 {
        fill: #07054a;
      }

      .cls-1, .cls-2, .cls-3 {
        stroke-width: 0px;
      }

      .cls-2 {
        fill: #8ad7bb;
      }

      .cls-3 {
        fill: #fefefe;
      }
    </style></defs><rect
     style="fill:#07054a;fill-opacity:1;stroke:none;stroke-width:2.24;stroke-miterlimit:10;stroke-dasharray:none"
     id="rect464"
     width="8416.3398"
     height="2915.3098"
     x="0"
     y="0" /><path
     class="cls-1"
     d="m 945.4647,1355.2638 104.541,210.094 417.6582,-843.41238 281.8458,598.10028 123.5669,-252.5988 433.5467,903.5261 H 638.52091 Z"
     id="path10298-6"
     sodipodi:nodetypes="cccccccc"
     style="display:inline;fill:#ffffff;stroke-width:0px" /><path
     style="fill:#07054a;fill-opacity:1;stroke-width:0px"
     d="m 1362.0476,1367.2111 c -37.1604,1.0175 -73.4249,13.8788 -104.2849,38.9388 -15.1802,12.2454 -27.609,26.616 -33.681,45.5407 -7.8938,24.5919 2.0137,41.7922 27.4152,46.5486 11.6382,2.2265 23.5799,2.8345 35.4205,3.3405 15.7874,0.8096 31.6729,0.4008 47.3591,3.5381 31.5748,6.2745 43.8265,24.3872 36.8436,55.7595 -4.8577,21.6571 -15.5905,40.6783 -28.4431,58.3885 -23.2763,32.0808 -47.261,63.6699 -70.8409,95.5483 -12.2454,16.4959 -23.0629,33.697 -31.665,52.4192 -22.8716,49.8922 -14.7873,95.0227 20.7344,136.0091 22.9924,26.6229 85.3294,68.7387 85.3294,68.7387 h 346.8123 c 0,0 3.5014,1.3538 3.2219,-12.4655 -1.4168,-6.3756 -11.1156,-8.0044 -18.4021,-9.7248 -19.7342,-4.5541 -39.3816,-2.13 -62.6578,0.1973 37.242,-41.9984 47.0665,-88.6334 35.9344,-142.4725 7.8937,2.7325 14.2748,5.1534 20.8529,7.0762 38.3554,10.8285 61.9187,3.1317 86.713,-28.4431 10.2214,-13.055 22.1797,-21.3583 39.7888,-22.5727 22.5679,-1.6192 33.7854,-21.4405 26.8025,-43.6035 -3.1372,-9.8166 -10.9274,-8.9082 -17.809,-7.4914 -13.561,2.8337 -26.7046,7.4794 -40.1644,10.5155 -20.8474,4.6552 -52.329,-26.408 -48.5845,-47.4579 1.518,-8.6021 6.775,-9.4125 14.5675,-8.4005 20.4426,2.7324 40.6932,1.2247 61.1359,-2.1149 18.9246,-3.0361 29.5484,-18.8291 45.6394,-25.9132 4.0481,-1.8216 3.7453,-7.8937 3.3405,-12.6501 -3.6432,-48.1718 -45.6521,-105.5539 -91.4964,-117.192 -10.0189,-2.5301 -28.1197,-4.9565 -33.4834,-5.1589 -8.6021,-0.4048 -4.154,-17.1094 -4.8624,-29.2535 -2.53,-8.8046 -8.8006,-18.0123 -18.7183,-18.6195 -11.0309,-0.7084 -15.8934,10.6245 -17.5126,18.6195 -4.8576,25.1991 -19.7247,41.8927 -38.3458,58.3884 -16.6982,14.6742 -22.2833,36.8358 -24.5098,59.1001 -0.506,5.2625 2.0415,12.4509 -7.4714,13.3617 -43.4153,4.2505 -105.8662,59.1 -105.8662,59.1 0,0 0.6598,-10.9739 15.6089,-46.8773 22.4667,-41.7962 29.7341,-53.6134 27.204,-102.4935 -1.9228,-37.4445 -15.5881,-68.8225 -43.7221,-94.2241 -41.1573,-37.0586 -90.4256,-55.3086 -138.2031,-54.0004 z"
     id="path10418"
     sodipodi:nodetypes="cccccccccccccccccccccccccccccccccccccccccc" /><circle
     style="fill:none;fill-opacity:1;stroke:#8cd9bd;stroke-width:81.0365;stroke-miterlimit:10;stroke-dasharray:none;stroke-opacity:1"
     id="path1023"
     cx="1472.5718"
     cy="1460.4321"
     r="1215.0361" /><g
     id="g410"
     transform="matrix(0.90619307,0,0,0.90619307,499.83129,486.62249)"
     style="fill:#ffffff"><g
       aria-label="C3VALUE"
       id="text1769"
       style="font-weight:bold;font-size:733.333px;line-height:1.25;font-family:'Bebas Neue';-inkscape-font-specification:'Bebas Neue Bold';letter-spacing:40px;word-spacing:0px;fill:#ffffff"
       transform="matrix(2.6154598,0,0,2.6154598,2455.4324,-7054.3392)"><path
         d="m 326.02836,3033.2344 v 73.3333 c 0,36.6666 -16.13333,49.8666 -41.79998,49.8666 -25.66666,0 -41.79998,-13.2 -41.79998,-49.8666 v -277.1999 c 0,-36.6667 16.13332,-50.6 41.79998,-50.6 25.66665,0 41.79998,13.9333 41.79998,50.6 v 55 h 76.26663 v -49.8667 c 0,-82.1333 -41.06665,-129.0666 -120.26661,-129.0666 -79.19997,0 -120.26661,46.9333 -120.26661,129.0666 v 266.9332 c 0,82.1333 41.06664,129.0666 120.26661,129.0666 79.19996,0 120.26661,-46.9333 120.26661,-129.0666 v -68.1999 z"
         id="path359"
         style="fill:#ffffff" /><path
         d="m 646.89468,2866.0344 c 0,41.0667 -18.33333,54.2667 -48.39998,54.2667 h -31.53332 v 73.3333 h 27.13332 c 36.66665,0 52.79998,17.6 52.79998,65.2666 v 40.3333 c 0,45.4667 -16.13333,57.9333 -41.79999,57.9333 -25.66665,0 -41.79998,-13.9333 -41.79998,-50.5999 v -47.6667 h -76.26663 v 42.5333 c 0,82.1333 41.06665,129.0666 120.26661,129.0666 79.19997,0 120.26662,-46.9333 120.26662,-129.0666 v -40.3333 c 0,-52.0666 -16.13333,-90.1999 -56.46665,-107.7999 38.86665,-16.1334 56.46665,-50.6 56.46665,-105.6 v -13.2 c 0,-82.1333 -41.06665,-129.0666 -120.26662,-129.0666 -79.19996,0 -120.26661,46.9333 -120.26661,129.0666 v 27.8667 h 76.26663 v -33 c 0,-36.6667 16.13333,-50.6 41.79998,-50.6 25.66666,0 41.79999,12.4667 41.79999,58.6666 z"
         id="path361"
         style="fill:#ffffff" /><path
         d="m 881.96119,2711.3012 h -81.39996 l 79.19997,513.3331 h 120.2666 l 79.2,-513.3331 h -74.0667 l -61.59993,418.7331 z"
         id="path363"
         style="fill:#ffffff" /><path
         d="m 1317.2282,2711.3012 h -118.0666 l -82.1333,513.3331 h 74.0667 l 13.9333,-93.1333 h 99 l 13.9333,93.1333 h 81.3999 z m -63.0666,90.9333 38.8667,259.5998 h -77.7333 z"
         id="path365"
         style="fill:#ffffff" /><path
         d="m 1476.7612,3224.6343 h 213.3999 v -73.3333 h -132.7333 v -439.9998 h -80.6666 z"
         id="path367"
         style="fill:#ffffff" /><path
         d="m 1761.695,2711.3012 v 390.8665 c 0,82.1333 41.0666,129.0666 120.2666,129.0666 79.2,0 120.2666,-46.9333 120.2666,-129.0666 v -390.8665 h -76.2666 v 395.9998 c 0,36.6666 -16.1334,49.8666 -41.8,49.8666 -25.6667,0 -41.8,-13.2 -41.8,-49.8666 v -395.9998 z"
         id="path369"
         style="fill:#ffffff" /><path
         d="m 2177.8953,2784.6345 h 139.3333 v -73.3333 h -219.9999 v 513.3331 h 219.9999 v -73.3333 h -139.3333 v -150.3333 h 110.7333 v -73.3333 h -110.7333 z"
         id="path371"
         style="fill:#ffffff" /></g><g
       id="g1392"
       transform="matrix(2.6154598,0,0,2.6154598,2455.4324,-7248.3392)"
       style="fill:#ffffff"><path
         d="m 234.60261,3582.9981 h -3.70099 l -6.7701,-10.4819 q -4.24259,5.6511 -10.29055,9.0235 -6.04796,3.2813 -13.44993,3.2813 h -6.7701 q -6.58957,0 -12.45698,-2.461 -5.77716,-2.552 -10.11002,-6.9271 -4.33286,-4.375 -6.86037,-10.2084 -2.43724,-5.8334 -2.43724,-12.487 v -70.1826 q 0,-6.6537 2.43724,-12.487 2.52751,-5.8334 6.86037,-10.2084 4.33286,-4.3751 10.11002,-6.836 5.86741,-2.5521 12.45698,-2.5521 h 9.20733 q 6.58956,0 12.36672,2.5521 5.77715,2.4609 10.11002,6.836 4.33286,4.375 6.77009,10.2084 2.52751,5.8333 2.52751,12.487 v 5.2865 l -11.64457,1.8229 v -7.1094 q 0,-4.3751 -1.62483,-8.112 -1.62482,-3.8282 -4.42312,-6.6537 -2.79831,-2.8256 -6.58958,-4.4662 -3.70098,-1.6406 -8.03385,-1.6406 h -8.12411 q -4.33287,0 -8.12413,1.6406 -3.70098,1.6406 -6.58956,4.4662 -2.79831,2.8255 -4.42312,6.6537 -1.62483,3.7369 -1.62483,8.112 v 70.1826 q 0,4.375 1.62483,8.2031 1.62481,3.7371 4.42312,6.6538 2.88858,2.8255 6.58956,4.4661 3.79126,1.6407 8.12413,1.6407 h 8.12411 q 4.33287,0 8.03385,-1.6407 3.79127,-1.6406 6.58958,-4.4661 2.7983,-2.9167 4.42312,-6.6538 1.62483,-3.8281 1.62483,-8.2031 v -27.2527 h -20.67138 v -11.211 h 32.31595 z"
         style="font-size:185.766px;line-height:1.25;font-family:Abel;-inkscape-font-specification:Abel;letter-spacing:8.95653px;word-spacing:0px;opacity:1;fill:#ffffff;fill-opacity:1;stroke-width:0.99517"
         id="path374" /><path
         d="m 332.15905,3582.9981 -35.11424,-55.7815 h -15.97744 v 55.7815 H 269.4228 v -130.7038 h 41.07194 q 6.58956,0 12.36671,2.5522 5.77716,2.4608 10.11002,6.8359 4.33286,4.375 6.7701,10.2995 2.5275,5.8334 2.5275,12.487 v 10.573 q 0,6.6537 -2.5275,12.5782 -2.43724,5.8334 -6.7701,10.2084 -4.33286,4.3751 -10.11002,6.9271 -5.77715,2.461 -12.36671,2.461 l 35.11424,55.7815 z m -1.53455,-98.5292 q 0,-4.3749 -1.62482,-8.112 -1.62483,-3.8282 -4.42314,-6.6536 -2.7983,-2.9167 -6.58956,-4.5573 -3.70099,-1.6407 -8.03385,-1.6407 h -28.88576 v 52.5002 h 28.88576 q 4.33286,0 8.03385,-1.6406 3.79126,-1.6406 6.58956,-4.4662 2.79831,-2.9167 4.42314,-6.6536 1.62482,-3.8282 1.62482,-8.2032 z"
         style="font-size:185.766px;line-height:1.25;font-family:Abel;-inkscape-font-specification:Abel;letter-spacing:8.95653px;word-spacing:0px;opacity:1;fill:#ffffff;fill-opacity:1;stroke-width:0.99517"
         id="path376" /><path
         d="m 447.67883,3552.7375 q 0,6.6536 -2.52751,12.487 -2.43723,5.8334 -6.77009,10.2084 -4.33287,4.3751 -10.11002,6.9271 -5.77715,2.461 -12.36672,2.461 h -9.20733 q -6.58956,0 -12.45698,-2.461 -5.77715,-2.552 -10.11002,-6.9271 -4.33286,-4.375 -6.86037,-10.2084 -2.43724,-5.8334 -2.43724,-12.487 v -70.1826 q 0,-6.6537 2.43724,-12.487 2.52751,-5.8334 6.86037,-10.2084 4.33287,-4.3751 10.11002,-6.836 5.86742,-2.5521 12.45698,-2.5521 h 9.20733 q 6.58957,0 12.36672,2.5521 5.77715,2.4609 10.11002,6.836 4.33286,4.375 6.77009,10.2084 2.52751,5.8333 2.52751,12.487 z m -11.64457,-70.1826 q 0,-4.3751 -1.62483,-8.112 -1.62482,-3.8282 -4.42312,-6.6537 -2.79831,-2.8256 -6.58957,-4.4662 -3.70098,-1.6406 -8.03386,-1.6406 h -8.12411 q -4.33286,0 -8.12413,1.6406 -3.70098,1.6406 -6.58956,4.4662 -2.79831,2.8255 -4.42312,6.6537 -1.62483,3.7369 -1.62483,8.112 v 70.1826 q 0,4.375 1.62483,8.2031 1.62481,3.7371 4.42312,6.6538 2.88858,2.8255 6.58956,4.4661 3.79127,1.6407 8.12413,1.6407 h 8.12411 q 4.33288,0 8.03386,-1.6407 3.79126,-1.6406 6.58957,-4.4661 2.7983,-2.9167 4.42312,-6.6538 1.62483,-3.8281 1.62483,-8.2031 z"
         style="font-size:185.766px;line-height:1.25;font-family:Abel;-inkscape-font-specification:Abel;letter-spacing:8.95653px;word-spacing:0px;opacity:1;fill:#ffffff;fill-opacity:1;stroke-width:0.99517"
         id="path378" /><path
         d="m 570.87139,3582.9981 h -6.04796 l -25.18477,-98.3468 -0.36106,-5.1043 -0.54162,5.1043 -25.00422,98.3468 h -6.04796 l -34.39211,-130.7038 h 11.64457 l 25.36531,99.3494 0.36107,4.8308 0.36107,-4.8308 24.91397,-99.3494 h 6.49929 l 24.91397,99.3494 0.36108,4.8308 0.45134,-4.8308 25.27503,-99.3494 h 11.64458 z"
         style="font-size:185.766px;line-height:1.25;font-family:Abel;-inkscape-font-specification:Abel;letter-spacing:8.95653px;word-spacing:0px;opacity:1;fill:#ffffff;fill-opacity:1;stroke-width:0.99517"
         id="path380" /><path
         d="m 632.50119,3582.9981 v -130.7038 h 11.64457 v 130.7038 z"
         style="font-size:185.766px;line-height:1.25;font-family:Abel;-inkscape-font-specification:Abel;letter-spacing:8.95653px;word-spacing:0px;opacity:1;fill:#ffffff;fill-opacity:1;stroke-width:0.99517"
         id="path382" /><path
         d="m 749.37497,3582.9981 -53.98026,-95.1567 -1.08322,-5.6511 v 100.8078 h -11.64457 v -130.7038 h 6.04796 l 53.98026,95.2478 1.17348,5.56 v -100.8078 h 11.64457 v 130.7038 z"
         style="font-size:185.766px;line-height:1.25;font-family:Abel;-inkscape-font-specification:Abel;letter-spacing:8.95653px;word-spacing:0px;opacity:1;fill:#ffffff;fill-opacity:1;stroke-width:0.99517"
         id="path384" /><path
         d="m 864.98501,3582.9981 h -3.70099 l -6.7701,-10.4819 q -4.24259,5.6511 -10.29055,9.0235 -6.04796,3.2813 -13.44993,3.2813 h -6.7701 q -6.58956,0 -12.45698,-2.461 -5.77715,-2.552 -10.11002,-6.9271 -4.33286,-4.375 -6.86036,-10.2084 -2.43725,-5.8334 -2.43725,-12.487 v -70.1826 q 0,-6.6537 2.43725,-12.487 2.5275,-5.8334 6.86036,-10.2084 4.33287,-4.3751 10.11002,-6.836 5.86742,-2.5521 12.45698,-2.5521 h 9.20734 q 6.58956,0 12.36671,2.5521 5.77716,2.4609 10.11002,6.836 4.33286,4.375 6.77009,10.2084 2.52751,5.8333 2.52751,12.487 v 5.2865 l -11.64457,1.8229 v -7.1094 q 0,-4.3751 -1.62483,-8.112 -1.62482,-3.8282 -4.42312,-6.6537 -2.79831,-2.8256 -6.58957,-4.4662 -3.70099,-1.6406 -8.03386,-1.6406 h -8.12411 q -4.33286,0 -8.12412,1.6406 -3.70098,1.6406 -6.58957,4.4662 -2.79831,2.8255 -4.42313,6.6537 -1.62482,3.7369 -1.62482,8.112 v 70.1826 q 0,4.375 1.62482,8.2031 1.62482,3.7371 4.42313,6.6538 2.88859,2.8255 6.58957,4.4661 3.79126,1.6407 8.12412,1.6407 h 8.12411 q 4.33287,0 8.03386,-1.6407 3.79126,-1.6406 6.58957,-4.4661 2.7983,-2.9167 4.42312,-6.6538 1.62483,-3.8281 1.62483,-8.2031 v -27.2527 h -20.67138 v -11.211 h 32.31595 z"
         style="font-size:185.766px;line-height:1.25;font-family:Abel;-inkscape-font-specification:Abel;letter-spacing:8.95653px;word-spacing:0px;opacity:1;fill:#ffffff;fill-opacity:1;stroke-width:0.99517"
         id="path386" /><path
         d="m 1024.0809,3552.7375 q 0,6.6536 -2.5274,12.487 -2.4373,5.8334 -6.7701,10.2084 -4.3329,4.3751 -10.1101,6.9271 -5.77705,2.461 -12.36666,2.461 h -9.20734 q -6.58956,0 -12.45698,-2.461 -5.77715,-2.552 -10.11001,-6.9271 -4.33287,-4.375 -6.86037,-10.2084 -2.43723,-5.8334 -2.43723,-12.487 v -70.1826 q 0,-6.6537 2.43723,-12.487 2.5275,-5.8334 6.86037,-10.2084 4.33286,-4.3751 10.11001,-6.836 5.86742,-2.5521 12.45698,-2.5521 h 9.20734 q 6.58961,0 12.36666,2.5521 5.7772,2.4609 10.1101,6.836 4.3328,4.375 6.7701,10.2084 2.5274,5.8333 2.5274,12.487 v 5.2865 l -11.6445,1.8229 v -7.1094 q 0,-4.3751 -1.6248,-8.112 -1.6249,-3.8282 -4.4231,-6.6537 -2.7983,-2.8256 -6.58963,-4.4662 -3.70094,-1.6406 -8.03383,-1.6406 h -8.12413 q -4.33286,0 -8.12411,1.6406 -3.70099,1.6406 -6.58957,4.4662 -2.7983,2.8255 -4.42313,6.6537 -1.62482,3.7369 -1.62482,8.112 v 70.1826 q 0,4.375 1.62482,8.2031 1.62483,3.7371 4.42313,6.6538 2.88858,2.8255 6.58957,4.4661 3.79125,1.6407 8.12411,1.6407 h 8.12413 q 4.33289,0 8.03383,-1.6407 3.79133,-1.6406 6.58963,-4.4661 2.7982,-2.9167 4.4231,-6.6538 1.6248,-3.8281 1.6248,-8.2031 v -7.1094 l 11.6445,1.914 z"
         style="font-size:185.766px;line-height:1.25;font-family:Abel;-inkscape-font-specification:Abel;letter-spacing:8.95653px;word-spacing:0px;opacity:1;fill:#ffffff;fill-opacity:1;stroke-width:0.99517"
         id="path388" /><path
         d="m 1120.1028,3582.9981 v -59.7009 h -49.5571 v 59.7009 h -11.6445 v -130.7038 h 11.6445 v 59.792 h 49.5571 v -59.792 h 11.6446 v 130.7038 z"
         style="font-size:185.766px;line-height:1.25;font-family:Abel;-inkscape-font-specification:Abel;letter-spacing:8.95653px;word-spacing:0px;opacity:1;fill:#ffffff;fill-opacity:1;stroke-width:0.99517"
         id="path390" /><path
         d="m 1218.8328,3552.5552 h -40.9816 l -8.4852,30.4429 h -12.0959 l 37.9125,-130.7038 h 6.1382 l 38.0931,130.7038 h -12.0056 z m -37.8222,-11.211 h 34.7531 l -17.0606,-60.2477 -0.3611,-4.8307 -0.3611,4.8307 z"
         style="font-size:185.766px;line-height:1.25;font-family:Abel;-inkscape-font-specification:Abel;letter-spacing:8.95653px;word-spacing:0px;opacity:1;fill:#ffffff;fill-opacity:1;stroke-width:0.99517"
         id="path392" /><path
         d="m 1335.8871,3552.7375 q 0,6.6536 -2.5276,12.487 -2.4371,5.8334 -6.77,10.2084 -4.3329,4.3751 -10.1101,6.9271 -5.7771,2.461 -12.3666,2.461 h -9.2074 q -6.5896,0 -12.457,-2.461 -5.7772,-2.552 -10.1099,-6.9271 -4.3329,-4.375 -6.8604,-10.2084 -2.4373,-5.8334 -2.4373,-12.487 v -70.1826 q 0,-6.6537 2.4373,-12.487 2.5275,-5.8334 6.8604,-10.2084 4.3327,-4.3751 10.1099,-6.836 5.8674,-2.5521 12.457,-2.5521 h 9.2074 q 6.5895,0 12.3666,2.5521 5.7772,2.4609 10.1101,6.836 4.3329,4.375 6.77,10.2084 2.5276,5.8333 2.5276,12.487 z m -11.6446,-70.1826 q 0,-4.3751 -1.6248,-8.112 -1.6249,-3.8282 -4.4232,-6.6537 -2.7983,-2.8256 -6.5895,-4.4662 -3.701,-1.6406 -8.0338,-1.6406 h -8.1242 q -4.3329,0 -8.1241,1.6406 -3.701,1.6406 -6.5896,4.4662 -2.7983,2.8255 -4.4231,6.6537 -1.6248,3.7369 -1.6248,8.112 v 70.1826 q 0,4.375 1.6248,8.2031 1.6248,3.7371 4.4231,6.6538 2.8886,2.8255 6.5896,4.4661 3.7912,1.6407 8.1241,1.6407 h 8.1242 q 4.3328,0 8.0338,-1.6407 3.7912,-1.6406 6.5895,-4.4661 2.7983,-2.9167 4.4232,-6.6538 1.6248,-3.8281 1.6248,-8.2031 z"
         style="font-size:185.766px;line-height:1.25;font-family:Abel;-inkscape-font-specification:Abel;letter-spacing:8.95653px;word-spacing:0px;opacity:1;fill:#ffffff;fill-opacity:1;stroke-width:0.99517"
         id="path394" /><path
         d="m 1443.5536,3552.7375 q 0,6.6536 -2.7081,12.487 -2.6178,5.8334 -7.1312,10.2084 -4.4231,4.3751 -10.3808,6.9271 -5.8674,2.461 -12.457,2.461 h -9.2975 q -6.5897,0 -12.5473,-2.461 -5.8675,-2.552 -10.3809,-6.9271 -4.4231,-4.375 -7.1311,-10.2084 -2.6178,-5.8334 -2.6178,-12.487 v -5.1954 l 11.6446,-1.914 v 7.1094 q 0,4.375 1.7151,8.2031 1.8054,3.7371 4.7842,6.6538 2.9788,2.8255 6.8604,4.4661 3.9717,1.6407 8.3046,1.6407 h 8.1242 q 4.3327,0 8.2143,-1.6407 3.8816,-1.6406 6.8604,-4.4661 2.9789,-2.9167 4.6939,-6.6538 1.8054,-3.8281 1.8054,-8.2031 v -3.9193 q 0,-6.7448 -2.6178,-11.211 -2.6177,-4.4661 -6.9506,-7.5651 -4.3329,-3.1901 -9.8392,-5.3777 -5.4162,-2.1874 -11.1933,-4.375 -5.7771,-2.1875 -11.2835,-4.8307 -5.4161,-2.6433 -9.7489,-6.5625 -4.3329,-4.0105 -6.9506,-9.7527 -2.6178,-5.7422 -2.6178,-14.1276 v -2.461 q 0,-6.6537 2.4373,-12.487 2.5274,-5.8334 6.8603,-10.2084 4.3328,-4.3751 10.11,-6.836 5.8674,-2.5521 12.4569,-2.5521 h 8.3047 q 6.5896,0 12.3667,2.5521 5.7772,2.4609 10.1101,6.836 4.3328,4.375 6.7701,10.2084 2.5274,5.8333 2.5274,12.487 v 3.3724 l -11.6445,1.9141 v -5.2865 q 0,-4.3751 -1.6249,-8.112 -1.6248,-3.8282 -4.4231,-6.6537 -2.7983,-2.8256 -6.5895,-4.4662 -3.7011,-1.6406 -8.0338,-1.6406 h -7.2215 q -4.3329,0 -8.1242,1.6406 -3.7009,1.6406 -6.5895,4.4662 -2.7983,2.8255 -4.4231,6.6537 -1.6248,3.7369 -1.6248,8.112 v 2.461 q 0,6.289 2.6178,10.5729 2.6177,4.2839 6.9505,7.3829 4.3329,3.0078 9.749,5.2864 5.5063,2.1876 11.2835,4.5573 5.7771,2.2787 11.1933,5.1043 5.5063,2.7343 9.8391,6.8359 4.3329,4.0104 6.9507,9.8438 2.6178,5.8334 2.6178,14.2188 z"
         style="font-size:185.766px;line-height:1.25;font-family:Abel;-inkscape-font-specification:Abel;letter-spacing:8.95653px;word-spacing:0px;opacity:1;fill:#ffffff;fill-opacity:1;stroke-width:0.99517"
         id="path396" /><path
         d="m 1560.3138,3463.5053 v 119.4928 h -11.6445 v -119.4928 h -30.8717 v -11.211 h 73.3879 v 11.211 z"
         style="font-size:185.766px;line-height:1.25;font-family:Abel;-inkscape-font-specification:Abel;letter-spacing:8.95653px;word-spacing:0px;opacity:1;fill:#ffffff;fill-opacity:1;stroke-width:0.99517"
         id="path398" /><path
         d="m 1689.5544,3552.7375 q 0,6.6536 -2.5275,12.487 -2.4372,5.8334 -6.77,10.2084 -4.3329,4.3751 -10.1101,6.9271 -5.7771,2.461 -12.3667,2.461 h -9.2074 q -6.5895,0 -12.4569,-2.461 -5.7772,-2.552 -10.1101,-6.9271 -4.3328,-4.375 -6.8603,-10.2084 -2.4372,-5.8334 -2.4372,-12.487 v -70.1826 q 0,-6.6537 2.4372,-12.487 2.5275,-5.8334 6.8603,-10.2084 4.3329,-4.3751 10.1101,-6.836 5.8674,-2.5521 12.4569,-2.5521 h 9.2074 q 6.5896,0 12.3667,2.5521 5.7772,2.4609 10.1101,6.836 4.3328,4.375 6.77,10.2084 2.5275,5.8333 2.5275,12.487 z m -11.6445,-70.1826 q 0,-4.3751 -1.6249,-8.112 -1.6248,-3.8282 -4.4231,-6.6537 -2.7983,-2.8256 -6.5895,-4.4662 -3.7011,-1.6406 -8.0339,-1.6406 h -8.1241 q -4.3329,0 -8.1242,1.6406 -3.7009,1.6406 -6.5895,4.4662 -2.7983,2.8255 -4.4231,6.6537 -1.6248,3.7369 -1.6248,8.112 v 70.1826 q 0,4.375 1.6248,8.2031 1.6248,3.7371 4.4231,6.6538 2.8886,2.8255 6.5895,4.4661 3.7913,1.6407 8.1242,1.6407 h 8.1241 q 4.3328,0 8.0339,-1.6407 3.7912,-1.6406 6.5895,-4.4661 2.7983,-2.9167 4.4231,-6.6538 1.6249,-3.8281 1.6249,-8.2031 z"
         style="font-size:185.766px;line-height:1.25;font-family:Abel;-inkscape-font-specification:Abel;letter-spacing:8.95653px;word-spacing:0px;opacity:1;fill:#ffffff;fill-opacity:1;stroke-width:0.99517"
         id="path400" /><path
         d="m 1797.221,3582.9981 h -3.7011 l -6.7701,-10.4819 q -4.2425,5.6511 -10.2905,9.0235 -6.0479,3.2813 -13.4499,3.2813 h -6.7702 q -6.5895,0 -12.4569,-2.461 -5.7772,-2.552 -10.1101,-6.9271 -4.3328,-4.375 -6.8604,-10.2084 -2.4371,-5.8334 -2.4371,-12.487 v -70.1826 q 0,-6.6537 2.4371,-12.487 2.5276,-5.8334 6.8604,-10.2084 4.3329,-4.3751 10.1101,-6.836 5.8674,-2.5521 12.4569,-2.5521 h 9.2074 q 6.5896,0 12.3666,2.5521 5.7772,2.4609 10.1101,6.836 4.3328,4.375 6.7701,10.2084 2.5276,5.8333 2.5276,12.487 v 5.2865 l -11.6446,1.8229 v -7.1094 q 0,-4.3751 -1.6249,-8.112 -1.6248,-3.8282 -4.4231,-6.6537 -2.7983,-2.8256 -6.5896,-4.4662 -3.7009,-1.6406 -8.0338,-1.6406 h -8.1242 q -4.3329,0 -8.1241,1.6406 -3.701,1.6406 -6.5896,4.4662 -2.7982,2.8255 -4.423,6.6537 -1.6249,3.7369 -1.6249,8.112 v 70.1826 q 0,4.375 1.6249,8.2031 1.6248,3.7371 4.423,6.6538 2.8886,2.8255 6.5896,4.4661 3.7912,1.6407 8.1241,1.6407 h 8.1242 q 4.3329,0 8.0338,-1.6407 3.7913,-1.6406 6.5896,-4.4661 2.7983,-2.9167 4.4231,-6.6538 1.6249,-3.8281 1.6249,-8.2031 v -27.2527 h -20.6714 v -11.211 h 32.316 z"
         style="font-size:185.766px;line-height:1.25;font-family:Abel;-inkscape-font-specification:Abel;letter-spacing:8.95653px;word-spacing:0px;opacity:1;fill:#ffffff;fill-opacity:1;stroke-width:0.99517"
         id="path402" /><path
         d="m 1833.9368,3582.9981 v -130.7038 h 72.8462 v 11.211 h -61.2017 v 48.581 h 49.5572 v 11.2109 h -49.5572 v 48.4898 h 61.2017 v 11.2111 z"
         style="font-size:185.766px;line-height:1.25;font-family:Abel;-inkscape-font-specification:Abel;letter-spacing:8.95653px;word-spacing:0px;opacity:1;fill:#ffffff;fill-opacity:1;stroke-width:0.99517"
         id="path404" /><path
         d="m 1969.3154,3463.5053 v 119.4928 h -11.6445 v -119.4928 h -30.8717 v -11.211 h 73.3879 v 11.211 z"
         style="font-size:185.766px;line-height:1.25;font-family:Abel;-inkscape-font-specification:Abel;letter-spacing:8.95653px;word-spacing:0px;opacity:1;fill:#ffffff;fill-opacity:1;stroke-width:0.99517"
         id="path406" /><path
         d="m 2088.807,3582.9981 v -59.7009 h -49.5572 v 59.7009 h -11.6445 v -130.7038 h 11.6445 v 59.792 h 49.5572 v -59.792 h 11.6445 v 130.7038 z"
         style="font-size:185.766px;line-height:1.25;font-family:Abel;-inkscape-font-specification:Abel;letter-spacing:8.95653px;word-spacing:0px;opacity:1;fill:#ffffff;fill-opacity:1;stroke-width:0.99517"
         id="path408" /><path
         d="m 2138.9728,3582.9981 v -130.7038 h 72.8462 v 11.211 h -61.2016 v 48.581 h 49.5571 v 11.2109 h -49.5571 v 48.4898 h 61.2016 v 11.2111 z"
         style="font-size:185.766px;line-height:1.25;font-family:Abel;-inkscape-font-specification:Abel;letter-spacing:8.95653px;word-spacing:0px;opacity:1;fill:#ffffff;fill-opacity:1;stroke-width:0.99517"
         id="path410" /><path
         d="m 2303.7787,3582.9981 -35.1142,-55.7815 h -15.9775 v 55.7815 h -11.6446 v -130.7038 h 41.072 q 6.5895,0 12.3667,2.5522 5.7772,2.4608 10.11,6.8359 4.3329,4.375 6.7702,10.2995 2.5274,5.8334 2.5274,12.487 v 10.573 q 0,6.6537 -2.5274,12.5782 -2.4373,5.8334 -6.7702,10.2084 -4.3328,4.3751 -10.11,6.9271 -5.7772,2.461 -12.3667,2.461 l 35.1142,55.7815 z m -1.5346,-98.5292 q 0,-4.3749 -1.6248,-8.112 -1.6248,-3.8282 -4.4231,-6.6536 -2.7983,-2.9167 -6.5895,-4.5573 -3.7011,-1.6407 -8.0339,-1.6407 h -28.8858 v 52.5002 h 28.8858 q 4.3328,0 8.0339,-1.6406 3.7912,-1.6406 6.5895,-4.4662 2.7983,-2.9167 4.4231,-6.6536 1.6248,-3.8282 1.6248,-8.2032 z"
         style="font-size:185.766px;line-height:1.25;font-family:Abel;-inkscape-font-specification:Abel;letter-spacing:8.95653px;word-spacing:0px;opacity:1;fill:#ffffff;fill-opacity:1;stroke-width:0.99517"
         id="path412" /></g></g></svg>
