<?xml version="1.0" encoding="UTF-8" standalone="no"?>
<svg
   id="Ebene_1"
   data-name="Ebene 1"
   viewBox="0 0 2726.0001 3832.7199"
   version="1.1"
   sodipodi:docname="c3value-bright-portrait.svg"
   inkscape:version="1.2.2 (b0a8486541, 2022-12-01)"
   xml:space="preserve"
   width="2726"
   height="3832.72"
   inkscape:export-filename="c3value-bright-portrait.png"
   inkscape:export-xdpi="70.432869"
   inkscape:export-ydpi="70.432869"
   xmlns:inkscape="http://www.inkscape.org/namespaces/inkscape"
   xmlns:sodipodi="http://sodipodi.sourceforge.net/DTD/sodipodi-0.dtd"
   xmlns="http://www.w3.org/2000/svg"
   xmlns:svg="http://www.w3.org/2000/svg"><sodipodi:namedview
     id="namedview10301"
     pagecolor="#ffffff"
     bordercolor="#666666"
     borderopacity="1.0"
     inkscape:showpageshadow="2"
     inkscape:pageopacity="0.0"
     inkscape:pagecheckerboard="true"
     inkscape:deskcolor="#d1d1d1"
     showgrid="false"
     inkscape:zoom="4.9527436"
     inkscape:cx="2718.998"
     inkscape:cy="3753.5761"
     inkscape:window-width="2560"
     inkscape:window-height="1410"
     inkscape:window-x="0"
     inkscape:window-y="30"
     inkscape:window-maximized="1"
     inkscape:current-layer="Ebene_1" /><defs
     id="defs10292"><style
       id="style10290">
      .cls-1 {
        fill: #07054a;
      }

      .cls-1, .cls-2, .cls-3 {
        stroke-width: 0px;
      }

      .cls-2 {
        fill: #8ad7bb;
      }

      .cls-3 {
        fill: #fefefe;
      }
    </style></defs><rect
     style="fill:#ffffff;stroke:none;stroke-width:0.995;stroke-miterlimit:10"
     id="rect319"
     width="2726"
     height="3832.72"
     x="0"
     y="0" /><g
     id="g1242"
     transform="translate(677.88281,-1208.8429)"><g
       id="g953"
       transform="matrix(9.9906949,0,0,9.9906949,-583.85054,1295.4566)"
       style="opacity:1"><path
         class="cls-1"
         d="M 74.93,117.41 85.26,138.17 126.53,54.829996 154.38,113.93 166.59,88.969996 209.43,178.25 H 44.6 Z"
         id="path10298-6"
         sodipodi:nodetypes="cccccccc"
         style="display:inline;fill:#07054a;stroke-width:0px" /><path
         style="fill:#ffffff;stroke-width:0px"
         d="m 116.09375,118.59055 c -3.67192,0.10054 -7.25532,1.37141 -10.30469,3.84766 -1.5,1.21 -2.72812,2.63 -3.32812,4.5 -0.78,2.43 0.19898,4.12961 2.70898,4.59961 1.15,0.22 2.33,0.28008 3.5,0.33008 1.56,0.08 3.12969,0.0396 4.67969,0.34961 3.12,0.62 4.33062,2.40977 3.64062,5.50976 -0.48,2.14 -1.54054,4.01954 -2.81054,5.76953 -2.3,3.17 -4.67,6.29141 -7,9.44141 -1.21,1.63 -2.27891,3.32969 -3.12891,5.17969 -2.26,4.92999 -1.46117,9.38946 2.04883,13.43945 2.27195,2.63068 8.43164,6.79227 8.43164,6.79227 h 34.26953 c 0,0 0.34598,0.13377 0.31836,-1.23175 -0.14,-0.63 -1.09836,-0.79094 -1.81836,-0.96094 -1.95,-0.45 -3.89141,-0.21047 -6.1914,0.0195 3.67999,-4.14999 4.65078,-8.75813 3.55078,-14.07812 0.78,0.27 1.41054,0.50922 2.06054,0.69922 3.79,1.06999 6.11836,0.30945 8.56836,-2.81055 1.01,-1.29 2.19164,-2.11047 3.93164,-2.23047 2.23,-0.16 3.33844,-2.1186 2.64844,-4.30859 -0.31,-0.97 -1.07977,-0.88024 -1.75976,-0.74024 -1.34,0.28 -2.63876,0.73906 -3.96876,1.03906 -2.05999,0.46 -5.17078,-2.60945 -4.80078,-4.68945 0.15,-0.85 0.66946,-0.93008 1.43946,-0.83008 2.01999,0.27 4.02101,0.12102 6.04101,-0.20898 1.87,-0.3 2.91977,-1.86055 4.50977,-2.56055 0.4,-0.18 0.37008,-0.78 0.33008,-1.25 -0.36,-4.75999 -4.51102,-10.43008 -9.04102,-11.58008 -0.99,-0.25 -2.77859,-0.48976 -3.30859,-0.50976 -0.85,-0.04 -0.41047,-1.69063 -0.48047,-2.89063 -0.25,-0.87 -0.86961,-1.77984 -1.84961,-1.83984 -1.09,-0.07 -1.57047,1.04984 -1.73047,1.83984 -0.48,2.49 -1.94906,4.13954 -3.78906,5.76953 -1.65,1.45 -2.20188,3.63985 -2.42188,5.83985 -0.05,0.52 0.20172,1.23031 -0.73828,1.32031 -4.28999,0.42 -10.46094,5.83984 -10.46094,5.83984 0,0 0.0652,-1.08436 1.54236,-4.63208 2.22,-4.13 2.93811,-5.29769 2.68811,-10.12768 -0.19,-3.7 -1.54031,-6.80055 -4.32031,-9.31055 -4.06687,-3.66187 -8.93521,-5.4652 -13.65625,-5.33594 z"
         id="path10418"
         sodipodi:nodetypes="cccccccccccccccccccccccccccccccccccccccccc" /></g><circle
       style="opacity:1;fill:none;fill-opacity:1;stroke:#8cd9bd;stroke-width:80;stroke-miterlimit:10;stroke-dasharray:none;stroke-opacity:1"
       id="path1023"
       cx="685.11719"
       cy="2572.2874"
       r="1199.495" /></g><g
     aria-label="C3VALUE"
     id="text1769"
     style="font-weight:bold;font-size:733.333px;line-height:1.25;font-family:'Bebas Neue';-inkscape-font-specification:'Bebas Neue Bold';letter-spacing:40px;word-spacing:0px;fill:#07054a"
     transform="translate(123.505,123.94946)"><path
       d="m 326.02836,3033.2344 v 73.3333 c 0,36.6666 -16.13333,49.8666 -41.79998,49.8666 -25.66666,0 -41.79998,-13.2 -41.79998,-49.8666 v -277.1999 c 0,-36.6667 16.13332,-50.6 41.79998,-50.6 25.66665,0 41.79998,13.9333 41.79998,50.6 v 55 h 76.26663 v -49.8667 c 0,-82.1333 -41.06665,-129.0666 -120.26661,-129.0666 -79.19997,0 -120.26661,46.9333 -120.26661,129.0666 v 266.9332 c 0,82.1333 41.06664,129.0666 120.26661,129.0666 79.19996,0 120.26661,-46.9333 120.26661,-129.0666 v -68.1999 z"
       id="path359" /><path
       d="m 646.89468,2866.0344 c 0,41.0667 -18.33333,54.2667 -48.39998,54.2667 h -31.53332 v 73.3333 h 27.13332 c 36.66665,0 52.79998,17.6 52.79998,65.2666 v 40.3333 c 0,45.4667 -16.13333,57.9333 -41.79999,57.9333 -25.66665,0 -41.79998,-13.9333 -41.79998,-50.5999 v -47.6667 h -76.26663 v 42.5333 c 0,82.1333 41.06665,129.0666 120.26661,129.0666 79.19997,0 120.26662,-46.9333 120.26662,-129.0666 v -40.3333 c 0,-52.0666 -16.13333,-90.1999 -56.46665,-107.7999 38.86665,-16.1334 56.46665,-50.6 56.46665,-105.6 v -13.2 c 0,-82.1333 -41.06665,-129.0666 -120.26662,-129.0666 -79.19996,0 -120.26661,46.9333 -120.26661,129.0666 v 27.8667 h 76.26663 v -33 c 0,-36.6667 16.13333,-50.6 41.79998,-50.6 25.66666,0 41.79999,12.4667 41.79999,58.6666 z"
       id="path361" /><path
       d="m 881.96119,2711.3012 h -81.39996 l 79.19997,513.3331 h 120.2666 l 79.2,-513.3331 h -74.0667 l -61.59993,418.7331 z"
       id="path363" /><path
       d="m 1317.2282,2711.3012 h -118.0666 l -82.1333,513.3331 h 74.0667 l 13.9333,-93.1333 h 99 l 13.9333,93.1333 h 81.3999 z m -63.0666,90.9333 38.8667,259.5998 h -77.7333 z"
       id="path365" /><path
       d="m 1476.7612,3224.6343 h 213.3999 v -73.3333 h -132.7333 v -439.9998 h -80.6666 z"
       id="path367" /><path
       d="m 1761.695,2711.3012 v 390.8665 c 0,82.1333 41.0666,129.0666 120.2666,129.0666 79.2,0 120.2666,-46.9333 120.2666,-129.0666 v -390.8665 h -76.2666 v 395.9998 c 0,36.6666 -16.1334,49.8666 -41.8,49.8666 -25.6667,0 -41.8,-13.2 -41.8,-49.8666 v -395.9998 z"
       id="path369" /><path
       d="m 2177.8953,2784.6345 h 139.3333 v -73.3333 h -219.9999 v 513.3331 h 219.9999 v -73.3333 h -139.3333 v -150.3333 h 110.7333 v -73.3333 h -110.7333 z"
       id="path371" /></g><g
     id="g1392"
     transform="translate(123.505,123.94946)"><path
       d="m 234.60261,3582.9981 h -3.70099 l -6.7701,-10.4819 q -4.24259,5.6511 -10.29055,9.0235 -6.04796,3.2813 -13.44993,3.2813 h -6.7701 q -6.58957,0 -12.45698,-2.461 -5.77716,-2.552 -10.11002,-6.9271 -4.33286,-4.375 -6.86037,-10.2084 -2.43724,-5.8334 -2.43724,-12.487 v -70.1826 q 0,-6.6537 2.43724,-12.487 2.52751,-5.8334 6.86037,-10.2084 4.33286,-4.3751 10.11002,-6.836 5.86741,-2.5521 12.45698,-2.5521 h 9.20733 q 6.58956,0 12.36672,2.5521 5.77715,2.4609 10.11002,6.836 4.33286,4.375 6.77009,10.2084 2.52751,5.8333 2.52751,12.487 v 5.2865 l -11.64457,1.8229 v -7.1094 q 0,-4.3751 -1.62483,-8.112 -1.62482,-3.8282 -4.42312,-6.6537 -2.79831,-2.8256 -6.58958,-4.4662 -3.70098,-1.6406 -8.03385,-1.6406 h -8.12411 q -4.33287,0 -8.12413,1.6406 -3.70098,1.6406 -6.58956,4.4662 -2.79831,2.8255 -4.42312,6.6537 -1.62483,3.7369 -1.62483,8.112 v 70.1826 q 0,4.375 1.62483,8.2031 1.62481,3.7371 4.42312,6.6538 2.88858,2.8255 6.58956,4.4661 3.79126,1.6407 8.12413,1.6407 h 8.12411 q 4.33287,0 8.03385,-1.6407 3.79127,-1.6406 6.58958,-4.4661 2.7983,-2.9167 4.42312,-6.6538 1.62483,-3.8281 1.62483,-8.2031 v -27.2527 h -20.67138 v -11.211 h 32.31595 z"
       style="font-size:185.766px;line-height:1.25;font-family:Abel;-inkscape-font-specification:Abel;letter-spacing:8.95653px;word-spacing:0px;opacity:1;fill:#07054a;fill-opacity:1;stroke-width:0.99517"
       id="path374" /><path
       d="m 332.15905,3582.9981 -35.11424,-55.7815 h -15.97744 v 55.7815 H 269.4228 v -130.7038 h 41.07194 q 6.58956,0 12.36671,2.5522 5.77716,2.4608 10.11002,6.8359 4.33286,4.375 6.7701,10.2995 2.5275,5.8334 2.5275,12.487 v 10.573 q 0,6.6537 -2.5275,12.5782 -2.43724,5.8334 -6.7701,10.2084 -4.33286,4.3751 -10.11002,6.9271 -5.77715,2.461 -12.36671,2.461 l 35.11424,55.7815 z m -1.53455,-98.5292 q 0,-4.3749 -1.62482,-8.112 -1.62483,-3.8282 -4.42314,-6.6536 -2.7983,-2.9167 -6.58956,-4.5573 -3.70099,-1.6407 -8.03385,-1.6407 h -28.88576 v 52.5002 h 28.88576 q 4.33286,0 8.03385,-1.6406 3.79126,-1.6406 6.58956,-4.4662 2.79831,-2.9167 4.42314,-6.6536 1.62482,-3.8282 1.62482,-8.2032 z"
       style="font-size:185.766px;line-height:1.25;font-family:Abel;-inkscape-font-specification:Abel;letter-spacing:8.95653px;word-spacing:0px;opacity:1;fill:#07054a;fill-opacity:1;stroke-width:0.99517"
       id="path376" /><path
       d="m 447.67883,3552.7375 q 0,6.6536 -2.52751,12.487 -2.43723,5.8334 -6.77009,10.2084 -4.33287,4.3751 -10.11002,6.9271 -5.77715,2.461 -12.36672,2.461 h -9.20733 q -6.58956,0 -12.45698,-2.461 -5.77715,-2.552 -10.11002,-6.9271 -4.33286,-4.375 -6.86037,-10.2084 -2.43724,-5.8334 -2.43724,-12.487 v -70.1826 q 0,-6.6537 2.43724,-12.487 2.52751,-5.8334 6.86037,-10.2084 4.33287,-4.3751 10.11002,-6.836 5.86742,-2.5521 12.45698,-2.5521 h 9.20733 q 6.58957,0 12.36672,2.5521 5.77715,2.4609 10.11002,6.836 4.33286,4.375 6.77009,10.2084 2.52751,5.8333 2.52751,12.487 z m -11.64457,-70.1826 q 0,-4.3751 -1.62483,-8.112 -1.62482,-3.8282 -4.42312,-6.6537 -2.79831,-2.8256 -6.58957,-4.4662 -3.70098,-1.6406 -8.03386,-1.6406 h -8.12411 q -4.33286,0 -8.12413,1.6406 -3.70098,1.6406 -6.58956,4.4662 -2.79831,2.8255 -4.42312,6.6537 -1.62483,3.7369 -1.62483,8.112 v 70.1826 q 0,4.375 1.62483,8.2031 1.62481,3.7371 4.42312,6.6538 2.88858,2.8255 6.58956,4.4661 3.79127,1.6407 8.12413,1.6407 h 8.12411 q 4.33288,0 8.03386,-1.6407 3.79126,-1.6406 6.58957,-4.4661 2.7983,-2.9167 4.42312,-6.6538 1.62483,-3.8281 1.62483,-8.2031 z"
       style="font-size:185.766px;line-height:1.25;font-family:Abel;-inkscape-font-specification:Abel;letter-spacing:8.95653px;word-spacing:0px;opacity:1;fill:#07054a;fill-opacity:1;stroke-width:0.99517"
       id="path378" /><path
       d="m 570.87139,3582.9981 h -6.04796 l -25.18477,-98.3468 -0.36106,-5.1043 -0.54162,5.1043 -25.00422,98.3468 h -6.04796 l -34.39211,-130.7038 h 11.64457 l 25.36531,99.3494 0.36107,4.8308 0.36107,-4.8308 24.91397,-99.3494 h 6.49929 l 24.91397,99.3494 0.36108,4.8308 0.45134,-4.8308 25.27503,-99.3494 h 11.64458 z"
       style="font-size:185.766px;line-height:1.25;font-family:Abel;-inkscape-font-specification:Abel;letter-spacing:8.95653px;word-spacing:0px;opacity:1;fill:#07054a;fill-opacity:1;stroke-width:0.99517"
       id="path380" /><path
       d="m 632.50119,3582.9981 v -130.7038 h 11.64457 v 130.7038 z"
       style="font-size:185.766px;line-height:1.25;font-family:Abel;-inkscape-font-specification:Abel;letter-spacing:8.95653px;word-spacing:0px;opacity:1;fill:#07054a;fill-opacity:1;stroke-width:0.99517"
       id="path382" /><path
       d="m 749.37497,3582.9981 -53.98026,-95.1567 -1.08322,-5.6511 v 100.8078 h -11.64457 v -130.7038 h 6.04796 l 53.98026,95.2478 1.17348,5.56 v -100.8078 h 11.64457 v 130.7038 z"
       style="font-size:185.766px;line-height:1.25;font-family:Abel;-inkscape-font-specification:Abel;letter-spacing:8.95653px;word-spacing:0px;opacity:1;fill:#07054a;fill-opacity:1;stroke-width:0.99517"
       id="path384" /><path
       d="m 864.98501,3582.9981 h -3.70099 l -6.7701,-10.4819 q -4.24259,5.6511 -10.29055,9.0235 -6.04796,3.2813 -13.44993,3.2813 h -6.7701 q -6.58956,0 -12.45698,-2.461 -5.77715,-2.552 -10.11002,-6.9271 -4.33286,-4.375 -6.86036,-10.2084 -2.43725,-5.8334 -2.43725,-12.487 v -70.1826 q 0,-6.6537 2.43725,-12.487 2.5275,-5.8334 6.86036,-10.2084 4.33287,-4.3751 10.11002,-6.836 5.86742,-2.5521 12.45698,-2.5521 h 9.20734 q 6.58956,0 12.36671,2.5521 5.77716,2.4609 10.11002,6.836 4.33286,4.375 6.77009,10.2084 2.52751,5.8333 2.52751,12.487 v 5.2865 l -11.64457,1.8229 v -7.1094 q 0,-4.3751 -1.62483,-8.112 -1.62482,-3.8282 -4.42312,-6.6537 -2.79831,-2.8256 -6.58957,-4.4662 -3.70099,-1.6406 -8.03386,-1.6406 h -8.12411 q -4.33286,0 -8.12412,1.6406 -3.70098,1.6406 -6.58957,4.4662 -2.79831,2.8255 -4.42313,6.6537 -1.62482,3.7369 -1.62482,8.112 v 70.1826 q 0,4.375 1.62482,8.2031 1.62482,3.7371 4.42313,6.6538 2.88859,2.8255 6.58957,4.4661 3.79126,1.6407 8.12412,1.6407 h 8.12411 q 4.33287,0 8.03386,-1.6407 3.79126,-1.6406 6.58957,-4.4661 2.7983,-2.9167 4.42312,-6.6538 1.62483,-3.8281 1.62483,-8.2031 v -27.2527 h -20.67138 v -11.211 h 32.31595 z"
       style="font-size:185.766px;line-height:1.25;font-family:Abel;-inkscape-font-specification:Abel;letter-spacing:8.95653px;word-spacing:0px;opacity:1;fill:#07054a;fill-opacity:1;stroke-width:0.99517"
       id="path386" /><path
       d="m 1024.0809,3552.7375 q 0,6.6536 -2.5274,12.487 -2.4373,5.8334 -6.7701,10.2084 -4.3329,4.3751 -10.1101,6.9271 -5.77705,2.461 -12.36666,2.461 h -9.20734 q -6.58956,0 -12.45698,-2.461 -5.77715,-2.552 -10.11001,-6.9271 -4.33287,-4.375 -6.86037,-10.2084 -2.43723,-5.8334 -2.43723,-12.487 v -70.1826 q 0,-6.6537 2.43723,-12.487 2.5275,-5.8334 6.86037,-10.2084 4.33286,-4.3751 10.11001,-6.836 5.86742,-2.5521 12.45698,-2.5521 h 9.20734 q 6.58961,0 12.36666,2.5521 5.7772,2.4609 10.1101,6.836 4.3328,4.375 6.7701,10.2084 2.5274,5.8333 2.5274,12.487 v 5.2865 l -11.6445,1.8229 v -7.1094 q 0,-4.3751 -1.6248,-8.112 -1.6249,-3.8282 -4.4231,-6.6537 -2.7983,-2.8256 -6.58963,-4.4662 -3.70094,-1.6406 -8.03383,-1.6406 h -8.12413 q -4.33286,0 -8.12411,1.6406 -3.70099,1.6406 -6.58957,4.4662 -2.7983,2.8255 -4.42313,6.6537 -1.62482,3.7369 -1.62482,8.112 v 70.1826 q 0,4.375 1.62482,8.2031 1.62483,3.7371 4.42313,6.6538 2.88858,2.8255 6.58957,4.4661 3.79125,1.6407 8.12411,1.6407 h 8.12413 q 4.33289,0 8.03383,-1.6407 3.79133,-1.6406 6.58963,-4.4661 2.7982,-2.9167 4.4231,-6.6538 1.6248,-3.8281 1.6248,-8.2031 v -7.1094 l 11.6445,1.914 z"
       style="font-size:185.766px;line-height:1.25;font-family:Abel;-inkscape-font-specification:Abel;letter-spacing:8.95653px;word-spacing:0px;opacity:1;fill:#07054a;fill-opacity:1;stroke-width:0.99517"
       id="path388" /><path
       d="m 1120.1028,3582.9981 v -59.7009 h -49.5571 v 59.7009 h -11.6445 v -130.7038 h 11.6445 v 59.792 h 49.5571 v -59.792 h 11.6446 v 130.7038 z"
       style="font-size:185.766px;line-height:1.25;font-family:Abel;-inkscape-font-specification:Abel;letter-spacing:8.95653px;word-spacing:0px;opacity:1;fill:#07054a;fill-opacity:1;stroke-width:0.99517"
       id="path390" /><path
       d="m 1218.8328,3552.5552 h -40.9816 l -8.4852,30.4429 h -12.0959 l 37.9125,-130.7038 h 6.1382 l 38.0931,130.7038 h -12.0056 z m -37.8222,-11.211 h 34.7531 l -17.0606,-60.2477 -0.3611,-4.8307 -0.3611,4.8307 z"
       style="font-size:185.766px;line-height:1.25;font-family:Abel;-inkscape-font-specification:Abel;letter-spacing:8.95653px;word-spacing:0px;opacity:1;fill:#07054a;fill-opacity:1;stroke-width:0.99517"
       id="path392" /><path
       d="m 1335.8871,3552.7375 q 0,6.6536 -2.5276,12.487 -2.4371,5.8334 -6.77,10.2084 -4.3329,4.3751 -10.1101,6.9271 -5.7771,2.461 -12.3666,2.461 h -9.2074 q -6.5896,0 -12.457,-2.461 -5.7772,-2.552 -10.1099,-6.9271 -4.3329,-4.375 -6.8604,-10.2084 -2.4373,-5.8334 -2.4373,-12.487 v -70.1826 q 0,-6.6537 2.4373,-12.487 2.5275,-5.8334 6.8604,-10.2084 4.3327,-4.3751 10.1099,-6.836 5.8674,-2.5521 12.457,-2.5521 h 9.2074 q 6.5895,0 12.3666,2.5521 5.7772,2.4609 10.1101,6.836 4.3329,4.375 6.77,10.2084 2.5276,5.8333 2.5276,12.487 z m -11.6446,-70.1826 q 0,-4.3751 -1.6248,-8.112 -1.6249,-3.8282 -4.4232,-6.6537 -2.7983,-2.8256 -6.5895,-4.4662 -3.701,-1.6406 -8.0338,-1.6406 h -8.1242 q -4.3329,0 -8.1241,1.6406 -3.701,1.6406 -6.5896,4.4662 -2.7983,2.8255 -4.4231,6.6537 -1.6248,3.7369 -1.6248,8.112 v 70.1826 q 0,4.375 1.6248,8.2031 1.6248,3.7371 4.4231,6.6538 2.8886,2.8255 6.5896,4.4661 3.7912,1.6407 8.1241,1.6407 h 8.1242 q 4.3328,0 8.0338,-1.6407 3.7912,-1.6406 6.5895,-4.4661 2.7983,-2.9167 4.4232,-6.6538 1.6248,-3.8281 1.6248,-8.2031 z"
       style="font-size:185.766px;line-height:1.25;font-family:Abel;-inkscape-font-specification:Abel;letter-spacing:8.95653px;word-spacing:0px;opacity:1;fill:#07054a;fill-opacity:1;stroke-width:0.99517"
       id="path394" /><path
       d="m 1443.5536,3552.7375 q 0,6.6536 -2.7081,12.487 -2.6178,5.8334 -7.1312,10.2084 -4.4231,4.3751 -10.3808,6.9271 -5.8674,2.461 -12.457,2.461 h -9.2975 q -6.5897,0 -12.5473,-2.461 -5.8675,-2.552 -10.3809,-6.9271 -4.4231,-4.375 -7.1311,-10.2084 -2.6178,-5.8334 -2.6178,-12.487 v -5.1954 l 11.6446,-1.914 v 7.1094 q 0,4.375 1.7151,8.2031 1.8054,3.7371 4.7842,6.6538 2.9788,2.8255 6.8604,4.4661 3.9717,1.6407 8.3046,1.6407 h 8.1242 q 4.3327,0 8.2143,-1.6407 3.8816,-1.6406 6.8604,-4.4661 2.9789,-2.9167 4.6939,-6.6538 1.8054,-3.8281 1.8054,-8.2031 v -3.9193 q 0,-6.7448 -2.6178,-11.211 -2.6177,-4.4661 -6.9506,-7.5651 -4.3329,-3.1901 -9.8392,-5.3777 -5.4162,-2.1874 -11.1933,-4.375 -5.7771,-2.1875 -11.2835,-4.8307 -5.4161,-2.6433 -9.7489,-6.5625 -4.3329,-4.0105 -6.9506,-9.7527 -2.6178,-5.7422 -2.6178,-14.1276 v -2.461 q 0,-6.6537 2.4373,-12.487 2.5274,-5.8334 6.8603,-10.2084 4.3328,-4.3751 10.11,-6.836 5.8674,-2.5521 12.4569,-2.5521 h 8.3047 q 6.5896,0 12.3667,2.5521 5.7772,2.4609 10.1101,6.836 4.3328,4.375 6.7701,10.2084 2.5274,5.8333 2.5274,12.487 v 3.3724 l -11.6445,1.9141 v -5.2865 q 0,-4.3751 -1.6249,-8.112 -1.6248,-3.8282 -4.4231,-6.6537 -2.7983,-2.8256 -6.5895,-4.4662 -3.7011,-1.6406 -8.0338,-1.6406 h -7.2215 q -4.3329,0 -8.1242,1.6406 -3.7009,1.6406 -6.5895,4.4662 -2.7983,2.8255 -4.4231,6.6537 -1.6248,3.7369 -1.6248,8.112 v 2.461 q 0,6.289 2.6178,10.5729 2.6177,4.2839 6.9505,7.3829 4.3329,3.0078 9.749,5.2864 5.5063,2.1876 11.2835,4.5573 5.7771,2.2787 11.1933,5.1043 5.5063,2.7343 9.8391,6.8359 4.3329,4.0104 6.9507,9.8438 2.6178,5.8334 2.6178,14.2188 z"
       style="font-size:185.766px;line-height:1.25;font-family:Abel;-inkscape-font-specification:Abel;letter-spacing:8.95653px;word-spacing:0px;opacity:1;fill:#07054a;fill-opacity:1;stroke-width:0.99517"
       id="path396" /><path
       d="m 1560.3138,3463.5053 v 119.4928 h -11.6445 v -119.4928 h -30.8717 v -11.211 h 73.3879 v 11.211 z"
       style="font-size:185.766px;line-height:1.25;font-family:Abel;-inkscape-font-specification:Abel;letter-spacing:8.95653px;word-spacing:0px;opacity:1;fill:#07054a;fill-opacity:1;stroke-width:0.99517"
       id="path398" /><path
       d="m 1689.5544,3552.7375 q 0,6.6536 -2.5275,12.487 -2.4372,5.8334 -6.77,10.2084 -4.3329,4.3751 -10.1101,6.9271 -5.7771,2.461 -12.3667,2.461 h -9.2074 q -6.5895,0 -12.4569,-2.461 -5.7772,-2.552 -10.1101,-6.9271 -4.3328,-4.375 -6.8603,-10.2084 -2.4372,-5.8334 -2.4372,-12.487 v -70.1826 q 0,-6.6537 2.4372,-12.487 2.5275,-5.8334 6.8603,-10.2084 4.3329,-4.3751 10.1101,-6.836 5.8674,-2.5521 12.4569,-2.5521 h 9.2074 q 6.5896,0 12.3667,2.5521 5.7772,2.4609 10.1101,6.836 4.3328,4.375 6.77,10.2084 2.5275,5.8333 2.5275,12.487 z m -11.6445,-70.1826 q 0,-4.3751 -1.6249,-8.112 -1.6248,-3.8282 -4.4231,-6.6537 -2.7983,-2.8256 -6.5895,-4.4662 -3.7011,-1.6406 -8.0339,-1.6406 h -8.1241 q -4.3329,0 -8.1242,1.6406 -3.7009,1.6406 -6.5895,4.4662 -2.7983,2.8255 -4.4231,6.6537 -1.6248,3.7369 -1.6248,8.112 v 70.1826 q 0,4.375 1.6248,8.2031 1.6248,3.7371 4.4231,6.6538 2.8886,2.8255 6.5895,4.4661 3.7913,1.6407 8.1242,1.6407 h 8.1241 q 4.3328,0 8.0339,-1.6407 3.7912,-1.6406 6.5895,-4.4661 2.7983,-2.9167 4.4231,-6.6538 1.6249,-3.8281 1.6249,-8.2031 z"
       style="font-size:185.766px;line-height:1.25;font-family:Abel;-inkscape-font-specification:Abel;letter-spacing:8.95653px;word-spacing:0px;opacity:1;fill:#07054a;fill-opacity:1;stroke-width:0.99517"
       id="path400" /><path
       d="m 1797.221,3582.9981 h -3.7011 l -6.7701,-10.4819 q -4.2425,5.6511 -10.2905,9.0235 -6.0479,3.2813 -13.4499,3.2813 h -6.7702 q -6.5895,0 -12.4569,-2.461 -5.7772,-2.552 -10.1101,-6.9271 -4.3328,-4.375 -6.8604,-10.2084 -2.4371,-5.8334 -2.4371,-12.487 v -70.1826 q 0,-6.6537 2.4371,-12.487 2.5276,-5.8334 6.8604,-10.2084 4.3329,-4.3751 10.1101,-6.836 5.8674,-2.5521 12.4569,-2.5521 h 9.2074 q 6.5896,0 12.3666,2.5521 5.7772,2.4609 10.1101,6.836 4.3328,4.375 6.7701,10.2084 2.5276,5.8333 2.5276,12.487 v 5.2865 l -11.6446,1.8229 v -7.1094 q 0,-4.3751 -1.6249,-8.112 -1.6248,-3.8282 -4.4231,-6.6537 -2.7983,-2.8256 -6.5896,-4.4662 -3.7009,-1.6406 -8.0338,-1.6406 h -8.1242 q -4.3329,0 -8.1241,1.6406 -3.701,1.6406 -6.5896,4.4662 -2.7982,2.8255 -4.423,6.6537 -1.6249,3.7369 -1.6249,8.112 v 70.1826 q 0,4.375 1.6249,8.2031 1.6248,3.7371 4.423,6.6538 2.8886,2.8255 6.5896,4.4661 3.7912,1.6407 8.1241,1.6407 h 8.1242 q 4.3329,0 8.0338,-1.6407 3.7913,-1.6406 6.5896,-4.4661 2.7983,-2.9167 4.4231,-6.6538 1.6249,-3.8281 1.6249,-8.2031 v -27.2527 h -20.6714 v -11.211 h 32.316 z"
       style="font-size:185.766px;line-height:1.25;font-family:Abel;-inkscape-font-specification:Abel;letter-spacing:8.95653px;word-spacing:0px;opacity:1;fill:#07054a;fill-opacity:1;stroke-width:0.99517"
       id="path402" /><path
       d="m 1833.9368,3582.9981 v -130.7038 h 72.8462 v 11.211 h -61.2017 v 48.581 h 49.5572 v 11.2109 h -49.5572 v 48.4898 h 61.2017 v 11.2111 z"
       style="font-size:185.766px;line-height:1.25;font-family:Abel;-inkscape-font-specification:Abel;letter-spacing:8.95653px;word-spacing:0px;opacity:1;fill:#07054a;fill-opacity:1;stroke-width:0.99517"
       id="path404" /><path
       d="m 1969.3154,3463.5053 v 119.4928 h -11.6445 v -119.4928 h -30.8717 v -11.211 h 73.3879 v 11.211 z"
       style="font-size:185.766px;line-height:1.25;font-family:Abel;-inkscape-font-specification:Abel;letter-spacing:8.95653px;word-spacing:0px;opacity:1;fill:#07054a;fill-opacity:1;stroke-width:0.99517"
       id="path406" /><path
       d="m 2088.807,3582.9981 v -59.7009 h -49.5572 v 59.7009 h -11.6445 v -130.7038 h 11.6445 v 59.792 h 49.5572 v -59.792 h 11.6445 v 130.7038 z"
       style="font-size:185.766px;line-height:1.25;font-family:Abel;-inkscape-font-specification:Abel;letter-spacing:8.95653px;word-spacing:0px;opacity:1;fill:#07054a;fill-opacity:1;stroke-width:0.99517"
       id="path408" /><path
       d="m 2138.9728,3582.9981 v -130.7038 h 72.8462 v 11.211 h -61.2016 v 48.581 h 49.5571 v 11.2109 h -49.5571 v 48.4898 h 61.2016 v 11.2111 z"
       style="font-size:185.766px;line-height:1.25;font-family:Abel;-inkscape-font-specification:Abel;letter-spacing:8.95653px;word-spacing:0px;opacity:1;fill:#07054a;fill-opacity:1;stroke-width:0.99517"
       id="path410" /><path
       d="m 2303.7787,3582.9981 -35.1142,-55.7815 h -15.9775 v 55.7815 h -11.6446 v -130.7038 h 41.072 q 6.5895,0 12.3667,2.5522 5.7772,2.4608 10.11,6.8359 4.3329,4.375 6.7702,10.2995 2.5274,5.8334 2.5274,12.487 v 10.573 q 0,6.6537 -2.5274,12.5782 -2.4373,5.8334 -6.7702,10.2084 -4.3328,4.3751 -10.11,6.9271 -5.7772,2.461 -12.3667,2.461 l 35.1142,55.7815 z m -1.5346,-98.5292 q 0,-4.3749 -1.6248,-8.112 -1.6248,-3.8282 -4.4231,-6.6536 -2.7983,-2.9167 -6.5895,-4.5573 -3.7011,-1.6407 -8.0339,-1.6407 h -28.8858 v 52.5002 h 28.8858 q 4.3328,0 8.0339,-1.6406 3.7912,-1.6406 6.5895,-4.4662 2.7983,-2.9167 4.4231,-6.6536 1.6248,-3.8282 1.6248,-8.2032 z"
       style="font-size:185.766px;line-height:1.25;font-family:Abel;-inkscape-font-specification:Abel;letter-spacing:8.95653px;word-spacing:0px;opacity:1;fill:#07054a;fill-opacity:1;stroke-width:0.99517"
       id="path412" /></g></svg>
